<mxfile host="65bd71144e">
    <diagram id="YkzBCnPGlJp-2DtWZiQw" name="Page-1">
        <mxGraphModel dx="1127" dy="500" grid="0" gridSize="10" guides="1" tooltips="1" connect="1" arrows="1" fold="1" page="1" pageScale="1" pageWidth="827" pageHeight="1169" background="#ffffff" math="0" shadow="0">
            <root>
                <mxCell id="0"/>
                <mxCell id="1" parent="0"/>
                <mxCell id="36" value="" style="edgeStyle=orthogonalEdgeStyle;html=1;fontSize=10;fontColor=#000000;fillColor=#647687;strokeColor=#314354;" edge="1" parent="1" source="2" target="6">
                    <mxGeometry relative="1" as="geometry">
                        <Array as="points"/>
                    </mxGeometry>
                </mxCell>
                <mxCell id="2" value="&lt;font color=&quot;#000000&quot;&gt;Carro&lt;/font&gt;" style="shape=umlActor;verticalLabelPosition=bottom;verticalAlign=top;html=1;outlineConnect=0;fillColor=default;gradientColor=none;shadow=1;strokeColor=#000000;" vertex="1" parent="1">
                    <mxGeometry x="10" y="224" width="30" height="60" as="geometry"/>
                </mxCell>
                <mxCell id="15" value="" style="edgeStyle=elbowEdgeStyle;html=1;fontColor=#000000;entryX=0;entryY=0.5;entryDx=0;entryDy=0;fillColor=#647687;strokeColor=#314354;" edge="1" parent="1" source="6" target="8">
                    <mxGeometry relative="1" as="geometry"/>
                </mxCell>
                <mxCell id="6" value="" style="line;strokeWidth=4;direction=south;html=1;perimeter=backbonePerimeter;points=[];outlineConnect=0;shadow=1;fontColor=#000000;fillColor=default;gradientColor=none;strokeColor=#0C7C7D;" vertex="1" parent="1">
                    <mxGeometry x="63" y="174" width="10" height="160" as="geometry"/>
                </mxCell>
                <mxCell id="11" style="edgeStyle=orthogonalEdgeStyle;html=1;exitX=0.5;exitY=0;exitDx=0;exitDy=0;entryX=0.229;entryY=0.225;entryDx=0;entryDy=0;entryPerimeter=0;fontColor=#000000;fillColor=#647687;strokeColor=#314354;" edge="1" parent="1" source="8" target="9">
                    <mxGeometry relative="1" as="geometry"/>
                </mxCell>
                <mxCell id="13" style="edgeStyle=orthogonalEdgeStyle;html=1;exitX=0.5;exitY=1;exitDx=0;exitDy=0;fontColor=#000000;fillColor=#647687;strokeColor=#314354;" edge="1" parent="1" source="8" target="9">
                    <mxGeometry relative="1" as="geometry">
                        <Array as="points">
                            <mxPoint x="120" y="305"/>
                        </Array>
                    </mxGeometry>
                </mxCell>
                <mxCell id="8" value="" style="rhombus;whiteSpace=wrap;html=1;shadow=1;fontColor=#000000;strokeColor=#363A3D;fillColor=none;gradientColor=none;" vertex="1" parent="1">
                    <mxGeometry x="98" y="232" width="45" height="44" as="geometry"/>
                </mxCell>
                <mxCell id="20" value="" style="edgeStyle=orthogonalEdgeStyle;html=1;fontSize=10;fontColor=#000000;fillColor=#647687;strokeColor=#314354;entryX=0.5;entryY=1;entryDx=0;entryDy=0;dashed=1;dashPattern=1 4;" edge="1" parent="1" source="9" target="18">
                    <mxGeometry relative="1" as="geometry">
                        <mxPoint x="268" y="254.00000000000006" as="targetPoint"/>
                        <Array as="points">
                            <mxPoint x="180" y="158"/>
                            <mxPoint x="182" y="158"/>
                            <mxPoint x="182" y="141"/>
                        </Array>
                    </mxGeometry>
                </mxCell>
                <mxCell id="9" value="" style="line;strokeWidth=4;direction=south;html=1;perimeter=backbonePerimeter;points=[];outlineConnect=0;shadow=1;fontColor=#000000;fillColor=default;gradientColor=none;strokeColor=#0C7C7D;" vertex="1" parent="1">
                    <mxGeometry x="175" y="174" width="10" height="160" as="geometry"/>
                </mxCell>
                <mxCell id="16" value="&lt;font style=&quot;font-size: 10px&quot;&gt;Avanzar&lt;/font&gt;" style="text;html=1;strokeColor=none;fillColor=none;align=center;verticalAlign=middle;whiteSpace=wrap;rounded=0;shadow=1;fontColor=#000000;" vertex="1" parent="1">
                    <mxGeometry x="120" y="186" width="60" height="30" as="geometry"/>
                </mxCell>
                <mxCell id="17" value="&lt;span style=&quot;font-size: 10px&quot;&gt;Detenerse&lt;/span&gt;" style="text;html=1;strokeColor=none;fillColor=none;align=center;verticalAlign=middle;whiteSpace=wrap;rounded=0;shadow=1;fontColor=#000000;" vertex="1" parent="1">
                    <mxGeometry x="120" y="304" width="60" height="30" as="geometry"/>
                </mxCell>
                <mxCell id="18" value="Ambiente" style="rounded=0;whiteSpace=wrap;html=1;shadow=1;fontSize=10;strokeColor=#314354;fillColor=#647687;fontColor=#ffffff;" vertex="1" parent="1">
                    <mxGeometry x="146" y="102" width="68" height="30" as="geometry"/>
                </mxCell>
                <mxCell id="34" value="" style="edgeStyle=orthogonalEdgeStyle;html=1;fontSize=10;fontColor=#000000;fillColor=#647687;strokeColor=#314354;" edge="1" parent="1" source="21" target="23">
                    <mxGeometry relative="1" as="geometry"/>
                </mxCell>
                <mxCell id="21" value="&lt;font color=&quot;#000000&quot;&gt;CamiÃ³n&lt;/font&gt;" style="shape=umlActor;verticalLabelPosition=bottom;verticalAlign=top;html=1;outlineConnect=0;fillColor=default;gradientColor=none;shadow=1;strokeColor=#000000;" vertex="1" parent="1">
                    <mxGeometry x="281" y="224" width="30" height="60" as="geometry"/>
                </mxCell>
                <mxCell id="22" value="" style="edgeStyle=elbowEdgeStyle;html=1;fontColor=#000000;entryX=0;entryY=0.5;entryDx=0;entryDy=0;fillColor=#647687;strokeColor=#314354;" edge="1" parent="1" source="23" target="26">
                    <mxGeometry relative="1" as="geometry"/>
                </mxCell>
                <mxCell id="23" value="" style="line;strokeWidth=4;direction=south;html=1;perimeter=backbonePerimeter;points=[];outlineConnect=0;shadow=1;fontColor=#000000;fillColor=default;gradientColor=none;strokeColor=#0C7C7D;" vertex="1" parent="1">
                    <mxGeometry x="334" y="174" width="10" height="160" as="geometry"/>
                </mxCell>
                <mxCell id="24" style="edgeStyle=orthogonalEdgeStyle;html=1;exitX=0.5;exitY=0;exitDx=0;exitDy=0;entryX=0.229;entryY=0.225;entryDx=0;entryDy=0;entryPerimeter=0;fontColor=#000000;fillColor=#647687;strokeColor=#314354;" edge="1" parent="1" source="26" target="28">
                    <mxGeometry relative="1" as="geometry"/>
                </mxCell>
                <mxCell id="25" style="edgeStyle=orthogonalEdgeStyle;html=1;exitX=0.5;exitY=1;exitDx=0;exitDy=0;fontColor=#000000;fillColor=#647687;strokeColor=#314354;" edge="1" parent="1" source="26" target="28">
                    <mxGeometry relative="1" as="geometry">
                        <Array as="points">
                            <mxPoint x="391" y="305"/>
                        </Array>
                    </mxGeometry>
                </mxCell>
                <mxCell id="32" style="edgeStyle=orthogonalEdgeStyle;html=1;exitX=1;exitY=0.5;exitDx=0;exitDy=0;fontSize=10;fontColor=#000000;fillColor=#647687;strokeColor=#314354;" edge="1" parent="1" source="26" target="28">
                    <mxGeometry relative="1" as="geometry"/>
                </mxCell>
                <mxCell id="26" value="" style="rhombus;whiteSpace=wrap;html=1;shadow=1;fontColor=#000000;strokeColor=#363A3D;fillColor=none;gradientColor=none;" vertex="1" parent="1">
                    <mxGeometry x="369" y="232" width="45" height="44" as="geometry"/>
                </mxCell>
                <mxCell id="27" value="" style="edgeStyle=orthogonalEdgeStyle;html=1;fontSize=10;fontColor=#000000;fillColor=#647687;strokeColor=#314354;entryX=0.5;entryY=1;entryDx=0;entryDy=0;dashed=1;dashPattern=1 4;" edge="1" parent="1" source="28" target="31">
                    <mxGeometry relative="1" as="geometry">
                        <mxPoint x="540" y="199.00000000000006" as="targetPoint"/>
                    </mxGeometry>
                </mxCell>
                <mxCell id="28" value="" style="line;strokeWidth=4;direction=south;html=1;perimeter=backbonePerimeter;points=[];outlineConnect=0;shadow=1;fontColor=#000000;fillColor=default;gradientColor=none;strokeColor=#0C7C7D;" vertex="1" parent="1">
                    <mxGeometry x="502" y="174" width="10" height="160" as="geometry"/>
                </mxCell>
                <mxCell id="29" value="&lt;font style=&quot;font-size: 10px&quot;&gt;Avanzar&lt;/font&gt;" style="text;html=1;strokeColor=none;fillColor=none;align=center;verticalAlign=middle;whiteSpace=wrap;rounded=0;shadow=1;fontColor=#000000;" vertex="1" parent="1">
                    <mxGeometry x="391" y="186" width="60" height="30" as="geometry"/>
                </mxCell>
                <mxCell id="30" value="&lt;span style=&quot;font-size: 10px&quot;&gt;Detenerse&lt;/span&gt;" style="text;html=1;strokeColor=none;fillColor=none;align=center;verticalAlign=middle;whiteSpace=wrap;rounded=0;shadow=1;fontColor=#000000;" vertex="1" parent="1">
                    <mxGeometry x="391" y="304" width="60" height="30" as="geometry"/>
                </mxCell>
                <mxCell id="31" value="Ambiente" style="rounded=0;whiteSpace=wrap;html=1;shadow=1;fontSize=10;strokeColor=#314354;fillColor=#647687;fontColor=#ffffff;" vertex="1" parent="1">
                    <mxGeometry x="473" y="108" width="68" height="30" as="geometry"/>
                </mxCell>
                <mxCell id="33" value="&lt;font style=&quot;font-size: 10px&quot;&gt;Parada&lt;/font&gt;" style="text;html=1;strokeColor=none;fillColor=none;align=center;verticalAlign=middle;whiteSpace=wrap;rounded=0;shadow=1;fontColor=#000000;" vertex="1" parent="1">
                    <mxGeometry x="421" y="232" width="60" height="30" as="geometry"/>
                </mxCell>
                <mxCell id="37" value="" style="edgeStyle=orthogonalEdgeStyle;html=1;fontSize=10;fontColor=#000000;fillColor=#647687;strokeColor=#314354;" edge="1" parent="1" source="38" target="40">
                    <mxGeometry relative="1" as="geometry">
                        <Array as="points"/>
                    </mxGeometry>
                </mxCell>
                <mxCell id="49" value="" style="edgeStyle=orthogonalEdgeStyle;html=1;fontSize=10;fontColor=#000000;" edge="1" parent="1" source="38" target="40">
                    <mxGeometry relative="1" as="geometry"/>
                </mxCell>
                <mxCell id="50" value="" style="edgeStyle=orthogonalEdgeStyle;html=1;fontSize=10;fontColor=#000000;" edge="1" parent="1" source="38" target="40">
                    <mxGeometry relative="1" as="geometry"/>
                </mxCell>
                <mxCell id="38" value="&lt;font color=&quot;#000000&quot;&gt;Peatones&lt;/font&gt;" style="shape=umlActor;verticalLabelPosition=bottom;verticalAlign=top;html=1;outlineConnect=0;fillColor=default;gradientColor=none;shadow=1;strokeColor=#000000;" vertex="1" parent="1">
                    <mxGeometry x="614" y="224" width="30" height="60" as="geometry"/>
                </mxCell>
                <mxCell id="39" value="" style="edgeStyle=elbowEdgeStyle;html=1;fontColor=#000000;entryX=0;entryY=0.5;entryDx=0;entryDy=0;fillColor=#647687;strokeColor=#314354;" edge="1" parent="1" source="40" target="43">
                    <mxGeometry relative="1" as="geometry"/>
                </mxCell>
                <mxCell id="40" value="" style="line;strokeWidth=4;direction=south;html=1;perimeter=backbonePerimeter;points=[];outlineConnect=0;shadow=1;fontColor=#000000;fillColor=default;gradientColor=none;strokeColor=#0C7C7D;" vertex="1" parent="1">
                    <mxGeometry x="667" y="174" width="10" height="160" as="geometry"/>
                </mxCell>
                <mxCell id="41" style="edgeStyle=orthogonalEdgeStyle;html=1;exitX=0.5;exitY=0;exitDx=0;exitDy=0;entryX=0.229;entryY=0.225;entryDx=0;entryDy=0;entryPerimeter=0;fontColor=#000000;fillColor=#647687;strokeColor=#314354;" edge="1" parent="1" source="43" target="45">
                    <mxGeometry relative="1" as="geometry"/>
                </mxCell>
                <mxCell id="42" style="edgeStyle=orthogonalEdgeStyle;html=1;exitX=0.5;exitY=1;exitDx=0;exitDy=0;fontColor=#000000;fillColor=#647687;strokeColor=#314354;" edge="1" parent="1" source="43" target="45">
                    <mxGeometry relative="1" as="geometry">
                        <Array as="points">
                            <mxPoint x="724" y="305"/>
                        </Array>
                    </mxGeometry>
                </mxCell>
                <mxCell id="43" value="" style="rhombus;whiteSpace=wrap;html=1;shadow=1;fontColor=#000000;strokeColor=#363A3D;fillColor=none;gradientColor=none;" vertex="1" parent="1">
                    <mxGeometry x="702" y="232" width="45" height="44" as="geometry"/>
                </mxCell>
                <mxCell id="44" value="" style="edgeStyle=orthogonalEdgeStyle;html=1;fontSize=10;fontColor=#000000;fillColor=#647687;strokeColor=#314354;entryX=0.5;entryY=1;entryDx=0;entryDy=0;dashed=1;dashPattern=1 4;" edge="1" parent="1" source="45" target="48">
                    <mxGeometry relative="1" as="geometry">
                        <mxPoint x="872" y="254.00000000000006" as="targetPoint"/>
                    </mxGeometry>
                </mxCell>
                <mxCell id="45" value="" style="line;strokeWidth=4;direction=south;html=1;perimeter=backbonePerimeter;points=[];outlineConnect=0;shadow=1;fontColor=#000000;fillColor=default;gradientColor=none;strokeColor=#0C7C7D;" vertex="1" parent="1">
                    <mxGeometry x="779" y="174" width="10" height="160" as="geometry"/>
                </mxCell>
                <mxCell id="46" value="&lt;font style=&quot;font-size: 10px&quot;&gt;Avanzar&lt;/font&gt;" style="text;html=1;strokeColor=none;fillColor=none;align=center;verticalAlign=middle;whiteSpace=wrap;rounded=0;shadow=1;fontColor=#000000;" vertex="1" parent="1">
                    <mxGeometry x="724" y="186" width="60" height="30" as="geometry"/>
                </mxCell>
                <mxCell id="47" value="&lt;span style=&quot;font-size: 10px&quot;&gt;Detenerse&lt;/span&gt;" style="text;html=1;strokeColor=none;fillColor=none;align=center;verticalAlign=middle;whiteSpace=wrap;rounded=0;shadow=1;fontColor=#000000;" vertex="1" parent="1">
                    <mxGeometry x="724" y="304" width="60" height="30" as="geometry"/>
                </mxCell>
                <mxCell id="48" value="Ambiente" style="rounded=0;whiteSpace=wrap;html=1;shadow=1;fontSize=10;strokeColor=#314354;fillColor=#647687;fontColor=#ffffff;" vertex="1" parent="1">
                    <mxGeometry x="750" y="117" width="68" height="30" as="geometry"/>
                </mxCell>
                <mxCell id="51" value="Diagramas de protocolos |&amp;nbsp; por agente" style="rounded=0;whiteSpace=wrap;html=1;labelBorderColor=none;strokeColor=#001DBC;fillColor=#0050ef;fontColor=#ffffff;" vertex="1" parent="1">
                    <mxGeometry x="261" y="23" width="306" height="40" as="geometry"/>
                </mxCell>
                <mxCell id="52" value="Diagramas de protocolos |&amp;nbsp; Gobal" style="rounded=0;whiteSpace=wrap;html=1;labelBorderColor=none;strokeColor=#001DBC;fillColor=#0050ef;fontColor=#ffffff;" vertex="1" parent="1">
                    <mxGeometry x="261" y="386" width="306" height="40" as="geometry"/>
                </mxCell>
                <mxCell id="53" value="" style="rounded=0;whiteSpace=wrap;html=1;shadow=1;fontSize=10;fontColor=#000000;strokeColor=#363A3D;fillColor=none;gradientColor=none;" vertex="1" parent="1">
                    <mxGeometry x="33" y="464" width="761" height="560" as="geometry"/>
                </mxCell>
                <mxCell id="54" value="&lt;font style=&quot;font-size: 14px&quot; color=&quot;#ffffff&quot;&gt;&lt;font style=&quot;font-size: 14px&quot;&gt;Interaccion&lt;/font&gt;es en la ciudad&amp;nbsp;&lt;/font&gt;" style="rounded=0;whiteSpace=wrap;html=1;shadow=1;fontSize=10;fontColor=#000000;strokeColor=#363A3D;fillColor=#6DAFB9;gradientColor=none;" vertex="1" parent="1">
                    <mxGeometry x="33" y="464" width="197" height="33" as="geometry"/>
                </mxCell>
                <mxCell id="58" style="edgeStyle=orthogonalEdgeStyle;html=1;exitX=1;exitY=0.5;exitDx=0;exitDy=0;entryX=0;entryY=0.5;entryDx=0;entryDy=0;fontSize=14;fontColor=#000000;strokeColor=#259B9C;" edge="1" parent="1" source="55" target="56">
                    <mxGeometry relative="1" as="geometry"/>
                </mxCell>
                <mxCell id="55" value="" style="ellipse;whiteSpace=wrap;html=1;shadow=1;fontSize=14;fontColor=#FFFFFF;strokeColor=#363A3D;fillColor=#000000;gradientColor=none;" vertex="1" parent="1">
                    <mxGeometry x="63" y="536" width="19" height="19" as="geometry"/>
                </mxCell>
                <mxCell id="59" style="edgeStyle=orthogonalEdgeStyle;html=1;exitX=1;exitY=0.5;exitDx=0;exitDy=0;entryX=0;entryY=0.5;entryDx=0;entryDy=0;fontSize=14;fontColor=#000000;strokeColor=#259B9C;" edge="1" parent="1" source="56" target="57">
                    <mxGeometry relative="1" as="geometry"/>
                </mxCell>
                <mxCell id="63" style="edgeStyle=orthogonalEdgeStyle;html=1;exitX=1;exitY=0.5;exitDx=0;exitDy=0;entryX=0;entryY=0.5;entryDx=0;entryDy=0;fontSize=14;fontColor=#000000;strokeColor=#259B9C;" edge="1" parent="1" source="56" target="62">
                    <mxGeometry relative="1" as="geometry"/>
                </mxCell>
                <mxCell id="56" value="&lt;font color=&quot;#000000&quot;&gt;Definir espacio de ciudad&amp;nbsp;&lt;/font&gt;" style="rounded=0;whiteSpace=wrap;html=1;shadow=1;fontSize=14;fontColor=#FFFFFF;strokeColor=#363A3D;fillColor=none;gradientColor=none;" vertex="1" parent="1">
                    <mxGeometry x="110" y="515.5" width="104" height="60" as="geometry"/>
                </mxCell>
                <mxCell id="65" style="edgeStyle=orthogonalEdgeStyle;html=1;exitX=1;exitY=0.5;exitDx=0;exitDy=0;fontSize=14;fontColor=#000000;strokeColor=#259B9C;" edge="1" parent="1" source="57" target="60">
                    <mxGeometry relative="1" as="geometry">
                        <Array as="points">
                            <mxPoint x="432" y="506"/>
                            <mxPoint x="432" y="527"/>
                        </Array>
                    </mxGeometry>
                </mxCell>
                <mxCell id="57" value="&lt;font color=&quot;#000000&quot;&gt;Delimitar calles&amp;nbsp;&lt;/font&gt;" style="rounded=0;whiteSpace=wrap;html=1;shadow=1;fontSize=14;fontColor=#FFFFFF;strokeColor=#363A3D;fillColor=none;gradientColor=none;" vertex="1" parent="1">
                    <mxGeometry x="287" y="476" width="104" height="60" as="geometry"/>
                </mxCell>
                <mxCell id="71" style="edgeStyle=orthogonalEdgeStyle;html=1;exitX=0.5;exitY=1;exitDx=0;exitDy=0;entryX=0.5;entryY=0;entryDx=0;entryDy=0;fontSize=14;fontColor=#000000;strokeColor=#259B9C;" edge="1" parent="1" source="60" target="61">
                    <mxGeometry relative="1" as="geometry"/>
                </mxCell>
                <mxCell id="60" value="&lt;font color=&quot;#000000&quot;&gt;Funcionamiento de semaforos&lt;/font&gt;" style="rounded=0;whiteSpace=wrap;html=1;shadow=1;fontSize=14;fontColor=#FFFFFF;strokeColor=#363A3D;fillColor=none;gradientColor=none;" vertex="1" parent="1">
                    <mxGeometry x="529" y="497" width="104" height="60" as="geometry"/>
                </mxCell>
                <mxCell id="77" style="edgeStyle=orthogonalEdgeStyle;html=1;exitX=1;exitY=0.5;exitDx=0;exitDy=0;entryX=0.5;entryY=0;entryDx=0;entryDy=0;fontSize=14;fontColor=#000000;strokeColor=#259B9C;" edge="1" parent="1" source="61" target="73">
                    <mxGeometry relative="1" as="geometry"/>
                </mxCell>
                <mxCell id="79" style="edgeStyle=orthogonalEdgeStyle;html=1;exitX=1;exitY=0.5;exitDx=0;exitDy=0;entryX=0.75;entryY=0;entryDx=0;entryDy=0;fontSize=14;fontColor=#000000;strokeColor=#259B9C;" edge="1" parent="1" source="61" target="72">
                    <mxGeometry relative="1" as="geometry"/>
                </mxCell>
                <mxCell id="80" style="edgeStyle=orthogonalEdgeStyle;html=1;exitX=0;exitY=0.5;exitDx=0;exitDy=0;entryX=0.5;entryY=0;entryDx=0;entryDy=0;fontSize=14;fontColor=#000000;strokeColor=#259B9C;" edge="1" parent="1" source="61" target="76">
                    <mxGeometry relative="1" as="geometry">
                        <Array as="points">
                            <mxPoint x="487" y="608"/>
                            <mxPoint x="487" y="633"/>
                            <mxPoint x="410" y="633"/>
                        </Array>
                    </mxGeometry>
                </mxCell>
                <mxCell id="81" style="edgeStyle=orthogonalEdgeStyle;html=1;exitX=0;exitY=0.5;exitDx=0;exitDy=0;fontSize=14;fontColor=#000000;strokeColor=#259B9C;" edge="1" parent="1" source="61" target="74">
                    <mxGeometry relative="1" as="geometry">
                        <Array as="points">
                            <mxPoint x="488" y="608"/>
                            <mxPoint x="488" y="633"/>
                            <mxPoint x="277" y="633"/>
                        </Array>
                    </mxGeometry>
                </mxCell>
                <mxCell id="61" value="" style="rhombus;whiteSpace=wrap;html=1;shadow=1;fontSize=14;fontColor=#000000;strokeColor=#363A3D;fillColor=none;gradientColor=none;" vertex="1" parent="1">
                    <mxGeometry x="558.5" y="585" width="45" height="45" as="geometry"/>
                </mxCell>
                <mxCell id="64" style="edgeStyle=orthogonalEdgeStyle;html=1;exitX=1;exitY=0.5;exitDx=0;exitDy=0;entryX=0;entryY=0.5;entryDx=0;entryDy=0;fontSize=14;fontColor=#000000;strokeColor=#259B9C;" edge="1" parent="1" source="62" target="60">
                    <mxGeometry relative="1" as="geometry">
                        <Array as="points">
                            <mxPoint x="428" y="577"/>
                            <mxPoint x="428" y="527"/>
                        </Array>
                    </mxGeometry>
                </mxCell>
                <mxCell id="62" value="&lt;font color=&quot;#000000&quot;&gt;Delimitar carriles&amp;nbsp;&lt;/font&gt;" style="rounded=0;whiteSpace=wrap;html=1;shadow=1;fontSize=14;fontColor=#FFFFFF;strokeColor=#363A3D;fillColor=none;gradientColor=none;" vertex="1" parent="1">
                    <mxGeometry x="287" y="547" width="104" height="60" as="geometry"/>
                </mxCell>
                <mxCell id="66" value="Semaforos" style="text;html=1;strokeColor=none;fillColor=none;align=center;verticalAlign=middle;whiteSpace=wrap;rounded=0;shadow=1;fontSize=14;fontColor=#000000;" vertex="1" parent="1">
                    <mxGeometry x="452" y="501" width="60" height="30" as="geometry"/>
                </mxCell>
                <mxCell id="87" style="edgeStyle=orthogonalEdgeStyle;html=1;exitX=0.5;exitY=1;exitDx=0;exitDy=0;entryX=0.5;entryY=0;entryDx=0;entryDy=0;fontSize=14;fontColor=#000000;strokeColor=#259B9C;" edge="1" parent="1" source="72" target="84">
                    <mxGeometry relative="1" as="geometry"/>
                </mxCell>
                <mxCell id="72" value="&lt;font color=&quot;#000000&quot;&gt;Carros/camiones se detienen&lt;/font&gt;" style="rounded=0;whiteSpace=wrap;html=1;shadow=1;fontSize=14;fontColor=#FFFFFF;strokeColor=#363A3D;fillColor=none;gradientColor=none;" vertex="1" parent="1">
                    <mxGeometry x="540" y="681" width="104" height="60" as="geometry"/>
                </mxCell>
                <mxCell id="88" style="edgeStyle=orthogonalEdgeStyle;html=1;exitX=0.5;exitY=1;exitDx=0;exitDy=0;entryX=0.5;entryY=0;entryDx=0;entryDy=0;fontSize=14;fontColor=#000000;strokeColor=#259B9C;" edge="1" parent="1" source="73" target="84">
                    <mxGeometry relative="1" as="geometry"/>
                </mxCell>
                <mxCell id="73" value="&lt;font color=&quot;#000000&quot;&gt;Peatones avanzan&amp;nbsp;&lt;/font&gt;" style="rounded=0;whiteSpace=wrap;html=1;shadow=1;fontSize=14;fontColor=#FFFFFF;strokeColor=#363A3D;fillColor=none;gradientColor=none;" vertex="1" parent="1">
                    <mxGeometry x="670" y="681" width="104" height="60" as="geometry"/>
                </mxCell>
                <mxCell id="85" style="edgeStyle=orthogonalEdgeStyle;html=1;exitX=0.5;exitY=1;exitDx=0;exitDy=0;entryX=0.5;entryY=0;entryDx=0;entryDy=0;fontSize=14;fontColor=#000000;strokeColor=#259B9C;" edge="1" parent="1" source="74" target="84">
                    <mxGeometry relative="1" as="geometry"/>
                </mxCell>
                <mxCell id="74" value="&lt;font color=&quot;#000000&quot;&gt;Carros/camiones se avanzan&lt;/font&gt;" style="rounded=0;whiteSpace=wrap;html=1;shadow=1;fontSize=14;fontColor=#FFFFFF;strokeColor=#363A3D;fillColor=none;gradientColor=none;" vertex="1" parent="1">
                    <mxGeometry x="225" y="681" width="104" height="60" as="geometry"/>
                </mxCell>
                <mxCell id="86" style="edgeStyle=orthogonalEdgeStyle;html=1;exitX=0.5;exitY=1;exitDx=0;exitDy=0;fontSize=14;fontColor=#000000;strokeColor=#259B9C;entryX=0.5;entryY=0;entryDx=0;entryDy=0;" edge="1" parent="1" source="76" target="84">
                    <mxGeometry relative="1" as="geometry">
                        <mxPoint x="498.52005615234384" y="792.1400390624999" as="targetPoint"/>
                    </mxGeometry>
                </mxCell>
                <mxCell id="76" value="&lt;font color=&quot;#000000&quot;&gt;Peatones se detienen&lt;/font&gt;" style="rounded=0;whiteSpace=wrap;html=1;shadow=1;fontSize=14;fontColor=#FFFFFF;strokeColor=#363A3D;fillColor=none;gradientColor=none;" vertex="1" parent="1">
                    <mxGeometry x="358" y="681" width="104" height="60" as="geometry"/>
                </mxCell>
                <mxCell id="82" value="Rojo" style="text;html=1;strokeColor=none;fillColor=none;align=center;verticalAlign=middle;whiteSpace=wrap;rounded=0;shadow=1;fontSize=14;fontColor=#000000;" vertex="1" parent="1">
                    <mxGeometry x="626" y="585" width="60" height="30" as="geometry"/>
                </mxCell>
                <mxCell id="83" value="Verde" style="text;html=1;strokeColor=none;fillColor=none;align=center;verticalAlign=middle;whiteSpace=wrap;rounded=0;shadow=1;fontSize=14;fontColor=#000000;" vertex="1" parent="1">
                    <mxGeometry x="496" y="585" width="60" height="30" as="geometry"/>
                </mxCell>
                <mxCell id="95" style="edgeStyle=orthogonalEdgeStyle;html=1;exitX=1;exitY=0.5;exitDx=0;exitDy=0;entryX=0;entryY=0.5;entryDx=0;entryDy=0;fontSize=14;fontColor=#000000;strokeColor=#259B9C;" edge="1" parent="1" source="84" target="94">
                    <mxGeometry relative="1" as="geometry"/>
                </mxCell>
                <mxCell id="106" style="edgeStyle=orthogonalEdgeStyle;html=1;exitX=0;exitY=0.5;exitDx=0;exitDy=0;entryX=1;entryY=0.5;entryDx=0;entryDy=0;fontSize=14;fontColor=#000000;strokeColor=#259B9C;" edge="1" parent="1" source="84" target="104">
                    <mxGeometry relative="1" as="geometry"/>
                </mxCell>
                <mxCell id="84" value="" style="rhombus;whiteSpace=wrap;html=1;shadow=1;fontSize=14;fontColor=#000000;strokeColor=#363A3D;fillColor=none;gradientColor=none;" vertex="1" parent="1">
                    <mxGeometry x="471" y="800" width="45" height="45" as="geometry"/>
                </mxCell>
                <mxCell id="93" style="edgeStyle=orthogonalEdgeStyle;html=1;exitX=0;exitY=0.5;exitDx=0;exitDy=0;entryX=0.5;entryY=1;entryDx=0;entryDy=0;fontSize=14;fontColor=#000000;strokeColor=#259B9C;" edge="1" parent="1" source="90" target="55">
                    <mxGeometry relative="1" as="geometry"/>
                </mxCell>
                <mxCell id="90" value="&lt;font color=&quot;#000000&quot;&gt;Reaparecen en el punto de inicio los agentes que interactuan con el ambiente&amp;nbsp;&lt;/font&gt;" style="rounded=0;whiteSpace=wrap;html=1;shadow=1;fontSize=14;fontColor=#FFFFFF;strokeColor=#363A3D;fillColor=none;gradientColor=none;" vertex="1" parent="1">
                    <mxGeometry x="499" y="944" width="271" height="60" as="geometry"/>
                </mxCell>
                <mxCell id="99" style="edgeStyle=orthogonalEdgeStyle;html=1;exitX=1;exitY=0.5;exitDx=0;exitDy=0;entryX=0;entryY=0.5;entryDx=0;entryDy=0;fontSize=14;fontColor=#000000;strokeColor=#259B9C;" edge="1" parent="1" source="94" target="98">
                    <mxGeometry relative="1" as="geometry"/>
                </mxCell>
                <mxCell id="102" style="edgeStyle=orthogonalEdgeStyle;html=1;exitX=0.5;exitY=1;exitDx=0;exitDy=0;entryX=0.387;entryY=0.098;entryDx=0;entryDy=0;entryPerimeter=0;fontSize=14;fontColor=#000000;strokeColor=#259B9C;" edge="1" parent="1" source="94" target="90">
                    <mxGeometry relative="1" as="geometry"/>
                </mxCell>
                <mxCell id="94" value="" style="rhombus;whiteSpace=wrap;html=1;shadow=1;fontSize=14;fontColor=#000000;strokeColor=#363A3D;fillColor=none;gradientColor=none;" vertex="1" parent="1">
                    <mxGeometry x="581" y="800" width="45" height="45" as="geometry"/>
                </mxCell>
                <mxCell id="96" value="Llegan a destino&amp;nbsp;" style="text;html=1;strokeColor=none;fillColor=none;align=center;verticalAlign=middle;whiteSpace=wrap;rounded=0;shadow=1;fontSize=14;fontColor=#000000;" vertex="1" parent="1">
                    <mxGeometry x="519" y="788" width="60" height="30" as="geometry"/>
                </mxCell>
                <mxCell id="98" value="" style="ellipse;whiteSpace=wrap;html=1;shadow=1;fontSize=14;fontColor=#FFFFFF;strokeColor=#363A3D;fillColor=#000000;gradientColor=none;" vertex="1" parent="1">
                    <mxGeometry x="731" y="813" width="19" height="19" as="geometry"/>
                </mxCell>
                <mxCell id="100" value="Se apaga la simulaciÃ³n" style="text;html=1;strokeColor=none;fillColor=none;align=center;verticalAlign=middle;whiteSpace=wrap;rounded=0;shadow=1;fontSize=14;fontColor=#000000;" vertex="1" parent="1">
                    <mxGeometry x="633" y="788" width="87" height="30" as="geometry"/>
                </mxCell>
                <mxCell id="101" value="" style="ellipse;whiteSpace=wrap;html=1;shadow=1;fontSize=14;fontColor=#FFFFFF;strokeColor=#FFFFFF;fillColor=#FFFFFF;gradientColor=none;" vertex="1" parent="1">
                    <mxGeometry x="734.5" y="816.5" width="12" height="12" as="geometry"/>
                </mxCell>
                <mxCell id="103" value="Se reinicia la simulaciÃ³n" style="text;html=1;strokeColor=none;fillColor=none;align=center;verticalAlign=middle;whiteSpace=wrap;rounded=0;shadow=1;fontSize=14;fontColor=#000000;" vertex="1" parent="1">
                    <mxGeometry x="606" y="875" width="87" height="30" as="geometry"/>
                </mxCell>
                <mxCell id="108" style="edgeStyle=orthogonalEdgeStyle;html=1;exitX=0.5;exitY=1;exitDx=0;exitDy=0;entryX=0;entryY=0.5;entryDx=0;entryDy=0;fontSize=14;fontColor=#000000;strokeColor=#259B9C;" edge="1" parent="1" source="104" target="94">
                    <mxGeometry relative="1" as="geometry">
                        <Array as="points">
                            <mxPoint x="298" y="913"/>
                            <mxPoint x="539" y="913"/>
                            <mxPoint x="539" y="823"/>
                        </Array>
                    </mxGeometry>
                </mxCell>
                <mxCell id="104" value="&lt;font color=&quot;#000000&quot;&gt;Siguen avanzando hasta llegar&amp;nbsp;&lt;/font&gt;" style="rounded=0;whiteSpace=wrap;html=1;shadow=1;fontSize=14;fontColor=#FFFFFF;strokeColor=#363A3D;fillColor=none;gradientColor=none;" vertex="1" parent="1">
                    <mxGeometry x="234" y="792.5" width="128" height="60" as="geometry"/>
                </mxCell>
                <mxCell id="107" value="No llegan a destino&amp;nbsp;" style="text;html=1;strokeColor=none;fillColor=none;align=center;verticalAlign=middle;whiteSpace=wrap;rounded=0;shadow=1;fontSize=14;fontColor=#000000;" vertex="1" parent="1">
                    <mxGeometry x="384" y="792.5" width="80" height="30" as="geometry"/>
                </mxCell>
            </root>
        </mxGraphModel>
    </diagram>
</mxfile>